<?xml version="1.0" encoding="iso-8859-1"?>
<!-- Generator: Adobe Illustrator 16.0.0, SVG Export Plug-In . SVG Version: 6.00 Build 0)  -->
<!DOCTYPE svg PUBLIC "-//W3C//DTD SVG 1.1//EN" "http://www.w3.org/Graphics/SVG/1.1/DTD/svg11.dtd">
<svg version="1.1" id="Capa_1" xmlns="http://www.w3.org/2000/svg" xmlns:xlink="http://www.w3.org/1999/xlink" x="0px" y="0px"
	 width="957.751px" height="957.751px" viewBox="0 0 957.751 957.751" style="enable-background:new 0 0 957.751 957.751;"
	 xml:space="preserve">
<g>
	<g>
		<path fill = "#454372" d="M166.175,414.818c8-108.2,15.6-202.601,102-213.2c10.5-17.6,23.2-33.8,37.8-48.4c14.9-14.9,31.4-27.6,49.4-38.1
			c-18.5-20.9-44.9-42.6-79.101-51c-74.3-18.4-202.6-5.4-264.7,245C-50.425,559.418,156.375,547.818,166.175,414.818z"/>
		<path fill = "#454372" d="M681.475,64.018c-34.5,8.5-61,30.4-79.4,51.4c17.7,10.4,34,23,48.7,37.7c14.601,14.6,27.101,30.8,37.501,48.3
			c87.699,9.8,95.299,104.6,103.299,213.3c9.801,133,216.602,144.7,154.602-105.8C884.176,58.618,755.775,45.618,681.475,64.018z"/>
		<path fill = "#454372" d="M646.774,202.518c-17.5-23.9-40-44-66-58.7c-30.399-17.2-65.399-27-102.799-27c-36.8,0-71.4,9.5-101.4,26.2
			c-26.5,14.7-49.399,35-67.199,59.2c-25.4,34.6-40.4,77.2-40.4,123.3v124.3c-53,47.699-84.7,113.399-84.7,186
			c0,140.6,122.5,255.5,276.7,263.6v-269.2c-36.6-5.1-64-25.899-64-50.8c0-28.7,36.5-52,81.5-52c45,0,81.5,23.3,81.5,52
			c0,24.9-27.4,45.7-64,50.8v269.2c154.2-8.1,276.4-123,276.4-263.6c0-72.5-33.4-138.2-85.4-186v-124.3
			C686.975,279.518,672.074,237.018,646.774,202.518z M297.075,768.518c-11.399,0-20.7-9.3-20.7-20.699c0-11.4,9.3-20.7,20.7-20.7
			c11.4,0,20.7,9.3,20.7,20.7C317.775,759.218,308.475,768.518,297.075,768.518z M300.475,694.518c-11.4,0-20.7-9.3-20.7-20.699
			c0-11.4,9.3-20.7,20.7-20.7s20.7,9.3,20.7,20.7C321.075,685.218,311.875,694.518,300.475,694.518z M322.975,397.418
			c0-16.6,13.4-30,30-30s30,13.4,30,30c0,16.6-13.4,30-30,30S322.975,414.018,322.975,397.418z M362.675,735.718
			c-11.4,0-20.7-9.3-20.7-20.7c0-11.399,9.3-20.699,20.7-20.699c11.399,0,20.7,9.3,20.7,20.699
			C383.275,726.418,374.075,735.718,362.675,735.718z M595.074,735.718c-11.399,0-20.699-9.3-20.699-20.7
			c0-11.399,9.3-20.699,20.699-20.699c11.4,0,20.7,9.3,20.7,20.699C615.774,726.418,606.475,735.718,595.074,735.718z
			 M603.975,427.418c-16.6,0-30-13.4-30-30c0-16.6,13.4-30,30-30s30,13.4,30,30C633.975,414.018,620.574,427.418,603.975,427.418z
			 M657.274,653.218c11.4,0,20.7,9.3,20.7,20.7s-9.3,20.7-20.7,20.7c-11.399,0-20.7-9.3-20.7-20.7
			C636.574,662.418,645.875,653.218,657.274,653.218z M660.675,768.518c-11.4,0-20.7-9.3-20.7-20.699c0-11.4,9.3-20.7,20.7-20.7
			c11.399,0,20.7,9.3,20.7,20.7C681.274,759.218,672.074,768.518,660.675,768.518z"/>
	</g>
</g>
<g>
</g>
<g>
</g>
<g>
</g>
<g>
</g>
<g>
</g>
<g>
</g>
<g>
</g>
<g>
</g>
<g>
</g>
<g>
</g>
<g>
</g>
<g>
</g>
<g>
</g>
<g>
</g>
<g>
</g>
</svg>
