<?xml version="1.0" encoding="iso-8859-1"?>
<!-- Generator: Adobe Illustrator 16.0.0, SVG Export Plug-In . SVG Version: 6.00 Build 0)  -->
<!DOCTYPE svg PUBLIC "-//W3C//DTD SVG 1.1//EN" "http://www.w3.org/Graphics/SVG/1.1/DTD/svg11.dtd">
<svg version="1.1" id="Capa_1" xmlns="http://www.w3.org/2000/svg" xmlns:xlink="http://www.w3.org/1999/xlink" x="0px" y="0px"
	 width="926.354px" height="926.354px" viewBox="0 0 926.354 926.354" style="enable-background:new 0 0 926.354 926.354;"
	 xml:space="preserve">
<g>
	<g>
		<circle fill = "#4C061D" cx="371.577" cy="536.653" r="44.7"/>
		<circle fill = "#4C061D" cx="554.776" cy="536.653" r="44.7"/>
		<path fill = "#4C061D" d="M226.877,696.953c170.7,172.7,150.6,229,236.3,229.4c86-0.4,65.6-56.7,236.3-229.4c156.9-158.5,117.7-264.6,104.9-337.499
			c0,0,5.7-43-4.2-93c-28-140.601-86.6-229.801-106.8-258c-5.5-7.7-15.3-10.5-24-6.9c-25.7,10.6-52.8,37.9-78.7,79.3
			c-6.7,10.7-13,21.8-18.9,33c-15.3,29.4-25.699,56.2-26.699,57.601c-4.801,6.699-13.7,9.6-21.801,6.6
			c-9.699-3.6-14.699-14.5-11.1-24.2c0.4-1.2,8.7-23.2,23.4-52.1c-21.101-6.101-46.5-9.101-72.5-9.2c-25.801,0.1-51.4,3.2-72.5,9.2
			c14.699,28.899,23,50.899,23.399,52.1c3.601,9.7-1.3,20.601-11.1,24.2c-8.101,3-16.9,0.1-21.8-6.6
			c-1-1.301-11.301-28.2-26.7-57.601c-5.9-11.2-12.101-22.3-18.9-33c-25.899-41.399-53-68.7-78.7-79.3c-8.7-3.6-18.5-0.7-24,6.9
			c-20,28.199-78.6,117.399-106.6,258.1c-9.9,50-4.2,93-4.2,93C109.177,432.354,69.977,538.453,226.877,696.953z M618.177,173.254
			c8.8-22,20.4-42.9,34.7-61.8c5-6.601,10.399-13,16.3-19.101c0,0,13.2,17.7,28.4,49.9c5.399,11.399,11,24.6,16.399,39.5
			c4.601,12.8,9.101,26.8,13,41.899c7,26.7,12.4,57,14.7,90.301c0.2,2.8,0.5,9.899,0.5,10.6c0,0-23.7-22.7-54.4-47.6
			c-19.199-15.7-41.1-32.2-61.6-44.7c-8.3-5.101-16.4-9.5-24-12.9C600.477,218.653,616.776,176.653,618.177,173.254z
			 M355.776,444.054c29.601-31,54.4-122,107.4-123c53,1,77.8,92,107.3,123c26.3,27.6,60.3,3.5,83-16.8
			c16-14.301,46.9-43.101,66.5-21.9c20.2,21.9,20.9,64,15.8,91.1c-11.8,63.4-56.1,118.301-98.899,164.301
			c-52.9,56.899-153.7,187.1-155.7,188.6v-103c2-2.1,42.3-52.4,42.3-52.4c17.3-22.699,1-55.6-27.6-55.6h-32.7h-32.7
			c-28.5,0-44.899,32.9-27.6,55.6c0,0,39.3,50.301,42.3,52.4v103c-2-1.5-102.8-131.7-155.8-188.7
			c-42.8-45.899-87.2-100.899-99-164.3c-5.1-27.1-4.4-69.2,15.8-91.1c19.6-21.2,50.6,7.6,66.5,21.899
			C295.477,447.554,329.577,471.554,355.776,444.054z M184.677,313.954c2.2-33.4,7.7-63.601,14.7-90.301c4-15.1,8.4-29.1,13-41.899
			c5.4-14.9,11-28.101,16.4-39.5c15.2-32.2,28.4-49.9,28.4-49.9c5.9,6.101,11.3,12.5,16.3,19.101c14.3,18.899,25.9,39.8,34.7,61.8
			c1.3,3.399,17.7,45.3,16,46.1c-7.6,3.4-15.7,7.8-24,12.9c-20.5,12.5-42.4,29.1-61.6,44.7c-30.6,25-54.4,47.6-54.4,47.6
			C184.177,323.854,184.477,316.854,184.677,313.954z"/>
	</g>
</g>
<g>
</g>
<g>
</g>
<g>
</g>
<g>
</g>
<g>
</g>
<g>
</g>
<g>
</g>
<g>
</g>
<g>
</g>
<g>
</g>
<g>
</g>
<g>
</g>
<g>
</g>
<g>
</g>
<g>
</g>
</svg>
